<svg fill="none" viewBox="25.58 0 52.08 46.13" xmlns="http://www.w3.org/2000/svg"><path d="m77.1556 5.4472-22.4297 38.8995c-1.3458 2.3711-4.8064 2.3711-6.2162 0l-11.9198-20.6994c-.1922-.3205.0641-.769.4486-.769h13.7141c1.2817 0 2.4353-.705 3.0761-1.7944l12.0479-20.827561c.0641-.128169.2564-.256339.4486-.256339h7.8184c2.6915.0640848 4.4218 3.01198 3.012 5.4472zm-26.9156 9.4845 8.1387-14.098598c.1923-.320424-.0641-.769017-.4486-.769017h-28.774c-2.7557 0-4.486 3.011985-3.0761 5.383115l6.3444 11.0226c.0641.1282.2563.2563.4486.2563h14.2909c1.2176-.0641 2.4352-.7049 3.0761-1.7944z" fill="#6bbf00"/></svg>